<svg xmlns="http://www.w3.org/2000/svg" xmlns:xlink="http://www.w3.org/1999/xlink" xml:space="preserve" version="1.1" style="shape-rendering:geometricPrecision;text-rendering:geometricPrecision;image-rendering:optimizeQuality;" viewBox="0 0 0.683 0.85375" x="0px" y="0px" fill-rule="evenodd" clip-rule="evenodd"><defs><style type="text/css">
   
    .fil0 {fill:black;fill-rule:nonzero}
   
  </style></defs><g><path class="fil0" d="M0.417 0.217c0.012,-0.012 0.012,-0.032 0,-0.044 -0.012,-0.012 -0.031,-0.012 -0.044,0l-0.146 0.147c-0.012,0.012 -0.012,0.031 0,0.044l0.146 0.146c0.013,0.012 0.032,0.012 0.044,0 0.012,-0.012 0.012,-0.032 0,-0.044l-0.124 -0.124 0.124 -0.125zm-0.075 -0.217c-0.095,0 -0.18,0.038 -0.242,0.1 -0.062,0.062 -0.1,0.147 -0.1,0.242 0,0.094 0.038,0.179 0.1,0.241 0.062,0.062 0.147,0.1 0.242,0.1 0.094,0 0.179,-0.038 0.241,-0.1 0.062,-0.062 0.1,-0.147 0.1,-0.241 0,-0.095 -0.038,-0.18 -0.1,-0.242 -0.062,-0.062 -0.147,-0.1 -0.241,-0.1zm-0.198 0.144c0.051,-0.051 0.12,-0.082 0.198,-0.082 0.077,0 0.147,0.031 0.197,0.082 0.051,0.051 0.082,0.12 0.082,0.198 0,0.077 -0.031,0.147 -0.082,0.197 -0.05,0.051 -0.12,0.082 -0.197,0.082 -0.078,0 -0.147,-0.031 -0.198,-0.082 -0.051,-0.05 -0.082,-0.12 -0.082,-0.197 0,-0.078 0.031,-0.147 0.082,-0.198z"/></g><text x="0" y="15.683" fill="#000000" font-size="5px" font-weight="bold" font-family="'Helvetica Neue', Helvetica, Arial-Unicode, Arial, Sans-serif">Created by Nociconist</text><text x="0" y="20.683" fill="#000000" font-size="5px" font-weight="bold" font-family="'Helvetica Neue', Helvetica, Arial-Unicode, Arial, Sans-serif">from the Noun Project</text></svg>