<?xml version="1.0" encoding="utf-8"?>
<!-- Generator: Adobe Illustrator 23.0.2, SVG Export Plug-In . SVG Version: 6.00 Build 0)  -->
<svg version="1.1" id="Layer_1" xmlns="http://www.w3.org/2000/svg" xmlns:xlink="http://www.w3.org/1999/xlink" x="0px" y="0px"
	 width="4096px" height="5120px" viewBox="0 0 4096 5120" style="enable-background:new 0 0 4096 5120;" xml:space="preserve">
<style type="text/css">
	.st0{fill:#FFFFFF;stroke:#000000;stroke-width:16.009;stroke-miterlimit:10;}
</style>
<circle class="st0" cx="2018.1" cy="2378.2" r="1883.1"/>
<g transform="translate(0.000000,4096.000000) scale(0.100000,-0.100000)">
	<path d="M6330.4,17375.1V9610.7l1969.1,5.3l1966.4,8l16,600.3c58.7,2033.1,651,3900.9,1774.3,5597.8
		c1459.5,2198.6,3724.8,3799.5,6278.2,4434.5c952.5,237.5,1536.9,306.8,2604.1,306.8c885.8,0,1243.4-32,1953.1-162.8
		c3580.7-659,6593-3124.4,7953.8-6507.6c344.2-856.5,571-1726.3,683.1-2628.1c48-370.9,96.1-1093.9,96.1-1432.8v-221.5h1961.1
		h1961.1V17375v7764.3H20938.6H6330.4V17375.1z"/>
</g>
</svg>
