<?xml version="1.0" encoding="utf-8"?>
<!-- Generator: Adobe Illustrator 23.0.2, SVG Export Plug-In . SVG Version: 6.00 Build 0)  -->
<svg version="1.1" id="Layer_1" xmlns="http://www.w3.org/2000/svg" xmlns:xlink="http://www.w3.org/1999/xlink" x="0px" y="0px"
	 width="100px" height="125px" viewBox="0 0 100 125" style="enable-background:new 0 0 100 125;" xml:space="preserve">
<style type="text/css">
	.st0{fill:#8C6239;}
	.st1{fill:none;stroke:#8C6239;stroke-width:0.8771;stroke-miterlimit:10;}
</style>
<path class="st0" d="M37.5,83.7l-9.9,21.1c-1.2,2.5-4.1,3.5-6.6,2.4c-2.4-1.1-3.5-4-2.5-6.4l9.2-21.4c1.2-2.7,4.3-4,7.1-2.8
	c2.7,1.2,4,4.3,2.8,7.1C37.5,83.6,37.5,83.7,37.5,83.7z"/>
<path class="st0" d="M28.4,28.6c-1.3-1-3.2-0.7-4.1,0.7l-3.2,4.8c-0.9,1.4-1.6,3.9-1.5,5.5l1,24.3c0.1,1.6,1.5,3,3.1,3l0.9,0
	c1.6,0,3.4-1.3,3.8-2.9L36,37.7c0.5-1.6-0.3-3.7-1.6-4.7L28.4,28.6z"/>
<g>
	<path class="st0" d="M50.2,32.9c4.9,0.3,9.2-3.7,9.3-8.8c0.1-5.1-3.8-9.3-8.8-9.4c-4.9-0.1-9.1,4.2-9.1,9.1
		C41.7,28.6,45.5,32.7,50.2,32.9z"/>
	<path class="st0" d="M76.3,54.2L47.6,36.3c-0.2-0.1-0.4-0.2-0.6-0.3c-2.8-1.3-6.2-0.1-7.5,2.7c-0.7,0.8-1.2,1.7-1.5,2.8l-5.8,22.3
		c-0.2,0.9-0.3,1.9-0.2,2.8c-0.3,2.1,0.4,4.4,2.3,5.9l16,12.7v17.6c0,2.7,2.2,5,5,5s5-2.2,5-5v-20c0-1.3-0.5-2.5-1.4-3.5l-0.2-0.2
		L46.1,66.7l4.3-16.5l20.7,9.7l-2.7,45.6c-0.1,1.2,0.8,2.2,2,2.2c0,0,0.1,0,0.1,0c1.1,0,2.1-0.9,2.1-2l2.7-44.8
		c0.9-0.2,1.6-0.8,2.1-1.6C78.5,57.5,78,55.2,76.3,54.2z"/>
</g>
<ellipse class="st1" cx="47" cy="65.9" rx="43.7" ry="58"/>
</svg>
