<?xml version="1.0" encoding="utf-8"?>
<!-- Generator: Adobe Illustrator 23.0.2, SVG Export Plug-In . SVG Version: 6.00 Build 0)  -->
<svg version="1.1" id="Layer_1" xmlns="http://www.w3.org/2000/svg" xmlns:xlink="http://www.w3.org/1999/xlink" x="0px" y="0px"
	 width="33px" height="41.3px" viewBox="0 0 33 41.3" style="enable-background:new 0 0 33 41.3;" xml:space="preserve">
<style type="text/css">
	.st0{fill-rule:evenodd;clip-rule:evenodd;}
</style>
<title>home-icon@1x</title>
<desc>Created with Sketch.</desc>
<g>
	<g transform="translate(-1207.000000, -2931.000000)">
		<g transform="translate(-14.000000, -75.000000)">
			<g transform="translate(307.000000, 2555.000000)">
				<g transform="translate(0.000000, 237.000000)">
					<g transform="translate(914.000000, 214.000000)">
						<path class="st0" d="M31.7,12.1c0.6,0.5,0.7,1.4,0.2,1.9c-0.5,0.6-1.4,0.7-1.9,0.2L16.1,3.1L2.3,14.2
							c-0.6,0.5-1.5,0.4-1.9-0.2c-0.5-0.6-0.4-1.5,0.2-1.9L15.2,0.3c0,0,0.1,0,0.1-0.1c0.1-0.1,0.2-0.1,0.3-0.1
							c0.1,0,0.2-0.1,0.2-0.1c0.1,0,0.2,0,0.3,0s0.2,0,0.3,0c0.1,0,0.2,0,0.2,0.1c0.1,0,0.2,0.1,0.3,0.1c0,0,0.1,0,0.1,0.1
							L31.7,12.1z M28,16.6c0.8,0,1.4,0.6,1.4,1.4v12.6c0,0.2,0,0.8-0.5,1.4c-0.6,0.8-1.6,0.8-1.7,0.8h-7.5c-0.1,0-0.7,0-1.1-0.5
							c-0.3-0.4-0.3-0.8-0.3-0.9v-6.9h-4.5l0,6.9c0,0.1,0,0.6-0.4,1c-0.4,0.4-0.9,0.4-1,0.4H5c-0.1,0-1.1,0-1.7-0.8
							c-0.5-0.6-0.5-1.2-0.5-1.4V17.9c0-0.8,0.6-1.4,1.4-1.4s1.4,0.6,1.4,1.4v12h5.6v-6.9c0-0.1,0-0.5,0.3-0.9
							c0.4-0.5,1-0.5,1.1-0.5h7.2c0.1,0,0.5,0,0.9,0.3c0.5,0.4,0.5,1,0.5,1.1V30h5.6l0-12C26.7,17.2,27.3,16.6,28,16.6z"/>
					</g>
				</g>
			</g>
		</g>
	</g>
</g>
</svg>
