<?xml version="1.0" encoding="utf-8"?>
<!-- Generator: Adobe Illustrator 23.0.2, SVG Export Plug-In . SVG Version: 6.00 Build 0)  -->
<svg version="1.1"
	 id="Layer_1" xmlns:cc="http://creativecommons.org/ns#" xmlns:dc="http://purl.org/dc/elements/1.1/" xmlns:inkscape="http://www.inkscape.org/namespaces/inkscape" xmlns:rdf="http://www.w3.org/1999/02/22-rdf-syntax-ns#" xmlns:sodipodi="http://sodipodi.sourceforge.net/DTD/sodipodi-0.dtd" xmlns:svg="http://www.w3.org/2000/svg"
	 xmlns="http://www.w3.org/2000/svg" xmlns:xlink="http://www.w3.org/1999/xlink" x="0px" y="0px" width="100px" height="122.7px"
	 viewBox="0 0 100 122.7" style="enable-background:new 0 0 100 122.7;" xml:space="preserve">
<style type="text/css">
	.st0{fill:#ffffff;stroke:#8C6239;stroke-width:0.9433;stroke-miterlimit:10;}
	.st1{fill:#8C6239;}
</style>
<circle class="st0" cx="49.5" cy="62.7" r="49.4"/>
<g transform="translate(0,-952.36218)">
	<g transform="matrix(2.7295918,0,0,-3.2303549,-1278.0381,2185.2761)">
		<path class="st1" d="M489,371.7c1.3,0,2.4,0.9,2.4,2s-1,2-2.4,2s-2.4-0.9-2.4-2C486.6,372.7,487.6,371.7,489,371.7"/>
		<path class="st1" d="M489,366.8c-0.3,0-0.7,0.2-1,0.5l-1.6,2l-3.1-2.7l3-1.3c1.2-0.5,1-1.4,1-1.4v-5.7c0-0.7-0.6-1.2-1.4-1.2
			s-1.4,0.6-1.4,1.2v4.6l-5.1,2.4c-0.6,0.3-1,0.8-1,1.5c0,0.5,0.2,0.8,0.5,1.1l5,4.3c0.6,0.6,1.5,0.5,1.5,0.5c1,0,1.6-0.7,1.6-0.7
			l2.6-3.5h3.9c1.4,0,1.4-1.6,0-1.6L489,366.8L489,366.8"/>
		<path class="st1" d="M495.4,364.5c-3.6,0-6.5-2.5-6.5-5.6c0-3.1,2.9-5.6,6.5-5.6c3.6,0,6.5,2.5,6.5,5.6
			C501.8,362.1,498.9,364.5,495.4,364.5z M495.3,354.9c-2.6,0-4.7,1.8-4.7,4s2.1,4,4.7,4s4.7-1.8,4.7-4
			C500,356.7,498,354.9,495.3,354.9"/>
		<path class="st1" d="M476.9,364.5c-3.6,0-6.5-2.5-6.5-5.6c0-3.1,2.9-5.6,6.5-5.6c3.6,0,6.5,2.5,6.5,5.6
			C483.3,362.1,480.4,364.5,476.9,364.5z M476.9,354.9c-2.6,0-4.7,1.8-4.7,4s2.1,4,4.7,4c2.6,0,4.7-1.8,4.7-4
			C481.5,356.7,479.4,354.9,476.9,354.9"/>
	</g>
</g>
</svg>
