<svg xmlns="http://www.w3.org/2000/svg" viewBox="0 0 30.21 37.7625" x="0px" y="0px"><title>Exit (2)</title><g data-name="Ebene 2"><g data-name="Ebene 3"><g><path d="M27.56,0H2.65A2.65,2.65,0,0,0,0,2.65V27.56a2.65,2.65,0,0,0,2.65,2.65H27.56a2.65,2.65,0,0,0,2.65-2.65V2.65A2.65,2.65,0,0,0,27.56,0ZM24.2,22.13a1.45,1.45,0,0,1,0,2.07,1.43,1.43,0,0,1-1,.43,1.45,1.45,0,0,1-1-.43l-7-7-7,7a1.45,1.45,0,0,1-1,.43,1.43,1.43,0,0,1-1-.43,1.45,1.45,0,0,1,0-2.07l7-7-7-7A1.47,1.47,0,0,1,8.08,6l7,7,7-7A1.47,1.47,0,0,1,24.2,8.08l-7,7Z"/></g></g></g><text x="0" y="45.21" fill="#000000" font-size="5px" font-weight="bold" font-family="'Helvetica Neue', Helvetica, Arial-Unicode, Arial, Sans-serif">Created by DesignHawk</text><text x="0" y="50.21" fill="#000000" font-size="5px" font-weight="bold" font-family="'Helvetica Neue', Helvetica, Arial-Unicode, Arial, Sans-serif">from the Noun Project</text></svg>