<?xml version="1.0" encoding="utf-8"?>
<!-- Generator: Adobe Illustrator 23.0.2, SVG Export Plug-In . SVG Version: 6.00 Build 0)  -->
<svg version="1.1" id="Layer_1" xmlns="http://www.w3.org/2000/svg" xmlns:xlink="http://www.w3.org/1999/xlink" x="0px" y="0px"
	 width="100px" height="125px" viewBox="0 0 100 125" style="enable-background:new 0 0 100 125;" xml:space="preserve">
<g>
	<path d="M7,30.7h84.5c3.3,0,6-3.4,6-7.6s-2.7-7.6-6-7.6H7c-3.3,0-6,3.4-6,7.6S3.6,30.7,7,30.7z"/>
	<path d="M91.4,53.5H7c-3.3,0-6,3.4-6,7.6s2.7,7.6,6,7.6h84.5c3.3,0,6-3.4,6-7.6S94.7,53.5,91.4,53.5z"/>
	<path d="M91.4,91.5H7c-3.3,0-6,3.4-6,7.6s2.7,7.6,6,7.6h84.5c3.3,0,6-3.4,6-7.6S94.7,91.5,91.4,91.5z"/>
</g>
</svg>
