<svg width="100" height="124.99999999999999" xmlns="http://www.w3.org/2000/svg">

 <g>
  <title>background</title>
  <rect fill="none" id="canvas_background" height="402" width="582" y="-1" x="-1"/>
 </g>
 <g>
  <title>Layer 1</title>
  <path id="svg_1" d="m49.5,5c-24.8,0 -45,20.2 -45,45c0,24.8 20.2,45 45,45c24.8,0 45,-20.2 45,-45c0,-24.8 -20.2,-45 -45,-45zm6.3,74.3l-12.6,0l0,-40.8l12.7,0l0,40.8l-0.1,0zm-6.4,-45.8c-4,0 -6.7,-2.8 -6.6,-6.3c-0.1,-3.7 2.6,-6.4 6.7,-6.4c4.1,0 6.7,2.8 6.8,6.4c0,3.4 -2.7,6.3 -6.9,6.3z"/>
 </g>
</svg>